<?xml version="1.0" encoding="UTF-8" standalone="no"?>
<svg
   height="24px"
   viewBox="0 -960 960 960"
   width="24px"
   fill="#ffffff"
   version="1.1"
   id="svg1"
   sodipodi:docname="icon_export_to_csv.svg"
   xml:space="preserve"
   inkscape:version="1.4 (86a8ad7, 2024-10-11)"
   xmlns:inkscape="http://www.inkscape.org/namespaces/inkscape"
   xmlns:sodipodi="http://sodipodi.sourceforge.net/DTD/sodipodi-0.dtd"
   xmlns="http://www.w3.org/2000/svg"
   xmlns:svg="http://www.w3.org/2000/svg"><defs
     id="defs1" /><sodipodi:namedview
     id="namedview1"
     pagecolor="#ffffff"
     bordercolor="#000000"
     borderopacity="0.25"
     inkscape:showpageshadow="2"
     inkscape:pageopacity="0.0"
     inkscape:pagecheckerboard="0"
     inkscape:deskcolor="#d1d1d1"
     inkscape:zoom="32.07"
     inkscape:cx="11.989398"
     inkscape:cy="15.294668"
     inkscape:window-width="2560"
     inkscape:window-height="1369"
     inkscape:window-x="-8"
     inkscape:window-y="-7"
     inkscape:window-maximized="1"
     inkscape:current-layer="svg1" /><rect
     style="fill:#081a27;stroke-width:120;stroke:none;fill-opacity:1"
     id="rect1"
     width="960"
     height="960"
     x="-1.3220717e-16"
     y="-959.99994" /><path
     d="m 608,-180 112,-112 v 92 h 40 V -360 H 600 v 40 h 92 l -112,112 z m -448,20 q -33,0 -56.5,-23.5 Q 80,-207 80,-240 v -560 q 0,-33 23.5,-56.5 Q 127,-880 160,-880 h 560 q 33,0 56.5,23.5 23.5,23.5 23.5,56.5 v 268 q -19,-9 -39,-15.5 -20,-6.5 -41,-9.5 V -800 H 160 v 560 h 242 q 3,22 9.5,42 6.5,20 15.5,38 z m 0,-120 v 40 -560 243 -3 z m 80,-40 h 163 q 3,-21 9.5,-41 6.5,-20 14.5,-39 H 240 Z m 0,-160 h 244 q 32,-30 71.5,-50 39.5,-20 84.5,-27 v -3 H 240 Z m 0,-160 h 400 v -80 H 240 Z M 680,-80 Q 597,-80 538.5,-138.5 480,-197 480,-280 480,-363 538.5,-421.5 597,-480 680,-480 q 83,0 141.5,58.5 58.5,58.5 58.5,141.5 0,83 -58.5,141.5 Q 763,-80 680,-80 Z"
     id="path1" /></svg>
