<?xml version="1.0" encoding="UTF-8" standalone="no"?>
<svg
   height="24px"
   viewBox="0 -960 960 960"
   width="24px"
   fill="#ffffff"
   version="1.1"
   id="svg1"
   sodipodi:docname="icon_zoom_in.svg"
   xml:space="preserve"
   inkscape:version="1.4 (86a8ad7, 2024-10-11)"
   xmlns:inkscape="http://www.inkscape.org/namespaces/inkscape"
   xmlns:sodipodi="http://sodipodi.sourceforge.net/DTD/sodipodi-0.dtd"
   xmlns="http://www.w3.org/2000/svg"
   xmlns:svg="http://www.w3.org/2000/svg"><defs
     id="defs1" /><sodipodi:namedview
     id="namedview1"
     pagecolor="#ffffff"
     bordercolor="#000000"
     borderopacity="0.25"
     inkscape:showpageshadow="2"
     inkscape:pageopacity="0.0"
     inkscape:pagecheckerboard="0"
     inkscape:deskcolor="#d1d1d1"
     inkscape:zoom="32.07"
     inkscape:cx="11.989398"
     inkscape:cy="15.294668"
     inkscape:window-width="2560"
     inkscape:window-height="1369"
     inkscape:window-x="-8"
     inkscape:window-y="-7"
     inkscape:window-maximized="1"
     inkscape:current-layer="svg1" /><rect
     style="fill:#081a27;stroke-width:120;stroke:none;fill-opacity:1"
     id="rect1"
     width="960"
     height="960"
     x="-1.3220717e-16"
     y="-959.99994" /><path
     d="M 784,-120 532,-372 q -30,24 -69,38 -39,14 -83,14 -109,0 -184.5,-75.5 Q 120,-471 120,-580 120,-689 195.5,-764.5 271,-840 380,-840 q 109,0 184.5,75.5 75.5,75.5 75.5,184.5 0,44 -14,83 -14,39 -38,69 l 252,252 z M 380,-400 q 75,0 127.5,-52.5 Q 560,-505 560,-580 560,-655 507.5,-707.5 455,-760 380,-760 305,-760 252.5,-707.5 200,-655 200,-580 q 0,75 52.5,127.5 Q 305,-400 380,-400 Z m -40,-60 v -80 h -80 v -80 h 80 v -80 h 80 v 80 h 80 v 80 h -80 v 80 z"
     id="path1" /></svg>
