<?xml version="1.0" encoding="UTF-8" standalone="no"?>
<svg
   height="24px"
   viewBox="0 -960 960 960"
   width="24px"
   fill="#ffffff"
   version="1.1"
   id="svg1"
   sodipodi:docname="icon_pan_tool.svg"
   xml:space="preserve"
   inkscape:version="1.4 (86a8ad7, 2024-10-11)"
   xmlns:inkscape="http://www.inkscape.org/namespaces/inkscape"
   xmlns:sodipodi="http://sodipodi.sourceforge.net/DTD/sodipodi-0.dtd"
   xmlns="http://www.w3.org/2000/svg"
   xmlns:svg="http://www.w3.org/2000/svg"><defs
     id="defs1" /><sodipodi:namedview
     id="namedview1"
     pagecolor="#ffffff"
     bordercolor="#000000"
     borderopacity="0.25"
     inkscape:showpageshadow="2"
     inkscape:pageopacity="0.0"
     inkscape:pagecheckerboard="0"
     inkscape:deskcolor="#d1d1d1"
     inkscape:zoom="32.07"
     inkscape:cx="11.989398"
     inkscape:cy="15.294668"
     inkscape:window-width="2560"
     inkscape:window-height="1369"
     inkscape:window-x="-8"
     inkscape:window-y="-7"
     inkscape:window-maximized="1"
     inkscape:current-layer="svg1" /><rect
     style="fill:#081a27;stroke-width:120;stroke:none;fill-opacity:1"
     id="rect1"
     width="960"
     height="960"
     x="-1.3220717e-16"
     y="-959.99994" /><path
     d="M 548,-40 Q 466,-40 394,-77.5 322,-115 276,-182 l -192,-282 19,-19 q 20,-21 49.5,-24 29.5,-3 53.5,14 l 110,76 v -383 q 0,-17 11.5,-28.5 11.5,-11.5 28.5,-11.5 17,0 28.5,11.5 11.5,11.5 11.5,28.5 v 537 l -148,-103 95,138 q 35,51 89,79.5 54,28.5 116,28.5 103,0 175.5,-72.5 Q 796,-265 796,-368 v -392 q 0,-17 11.5,-28.5 11.5,-11.5 28.5,-11.5 17,0 28.5,11.5 11.5,11.5 11.5,28.5 v 392 q 0,137 -95.5,232.5 Q 685,-40 548,-40 Z m -72,-440 v -400 q 0,-17 11.5,-28.5 11.5,-11.5 28.5,-11.5 17,0 28.5,11.5 11.5,11.5 11.5,28.5 v 400 z m 160,0 v -360 q 0,-17 11.5,-28.5 11.5,-11.5 28.5,-11.5 17,0 28.5,11.5 11.5,11.5 11.5,28.5 v 360 z m -114,180 z"
     id="path1" /></svg>
