<?xml version="1.0" encoding="UTF-8" standalone="no"?>
<svg
   height="24px"
   viewBox="0 -960 960 960"
   width="24px"
   fill="#ffffff"
   version="1.1"
   id="svg1"
   sodipodi:docname="icon_file_save.svg"
   xml:space="preserve"
   inkscape:version="1.4 (86a8ad7, 2024-10-11)"
   xmlns:inkscape="http://www.inkscape.org/namespaces/inkscape"
   xmlns:sodipodi="http://sodipodi.sourceforge.net/DTD/sodipodi-0.dtd"
   xmlns="http://www.w3.org/2000/svg"
   xmlns:svg="http://www.w3.org/2000/svg"><defs
     id="defs1" /><sodipodi:namedview
     id="namedview1"
     pagecolor="#ffffff"
     bordercolor="#000000"
     borderopacity="0.25"
     inkscape:showpageshadow="2"
     inkscape:pageopacity="0.0"
     inkscape:pagecheckerboard="0"
     inkscape:deskcolor="#d1d1d1"
     inkscape:zoom="32.07"
     inkscape:cx="11.989398"
     inkscape:cy="15.294668"
     inkscape:window-width="2560"
     inkscape:window-height="1369"
     inkscape:window-x="-8"
     inkscape:window-y="-7"
     inkscape:window-maximized="1"
     inkscape:current-layer="svg1" /><rect
     style="fill:#081a27;stroke-width:120;stroke:none;fill-opacity:1"
     id="rect1"
     width="960"
     height="960"
     x="-1.3220717e-16"
     y="-959.99994" /><path
     d="m 680,-160 160,-160 -56,-56 -64,64 v -167 h -80 v 167 l -64,-64 -56,56 z M 520,-40 v -80 h 320 v 80 z M 200,-200 q -33,0 -56.5,-23.5 Q 120,-247 120,-280 v -560 q 0,-33 23.5,-56.5 Q 167,-920 200,-920 h 280 l 240,240 v 121 h -80 v -81 H 440 V -840 H 200 v 560 h 240 v 80 z m 0,-80 v -560 z"
     id="path1" /></svg>
